  0
SECTION
  2
HEADER
  9
$ACADVER
  1
AC1027
  9
$ACADMAINTVER
 70
105
  9
$DWGCODEPAGE
  3
ANSI_1252
  9
$LASTSAVEDBY
  1
ezdxf
  9
$REQUIREDVERSIONS
160
0
  9
$INSBASE
 10
0.0
 20
0.0
 30
0.0
  9
$EXTMIN
 10
-100
 20
-100
 30
-100
  9
$EXTMAX
 10
100
 20
100
 30
100
  9
$LIMMIN
 10
0.0
 20
0.0
  9
$LIMMAX
 10
420.0
 20
297.0
  9
$ORTHOMODE
 70
0
  9
$REGENMODE
 70
1
  9
$FILLMODE
 70
1
  9
$QTEXTMODE
 70
0
  9
$MIRRTEXT
 70
1
  9
$LTSCALE
 40
1.0
  9
$ATTMODE
 70
1
  9
$TEXTSIZE
 40
2.5
  9
$TRACEWID
 40
1.0
  9
$TEXTSTYLE
  7
Standard
  9
$CLAYER
  8
0
  9
$CELTYPE
  6
ByLayer
  9
$CECOLOR
 62
256
  9
$CELTSCALE
 40
1.0
  9
$DISPSILH
 70
0
  9
$DIMSCALE
 40
1.0
  9
$DIMASZ
 40
2.5
  9
$DIMEXO
 40
0.625
  9
$DIMDLI
 40
3.75
  9
$DIMRND
 40
0.0
  9
$DIMDLE
 40
0.0
  9
$DIMEXE
 40
1.25
  9
$DIMTP
 40
0.0
  9
$DIMTM
 40
0.0
  9
$DIMTXT
 40
2.5
  9
$DIMCEN
 40
2.5
  9
$DIMTSZ
 40
0.0
  9
$DIMTOL
 70
0
  9
$DIMLIM
 70
0
  9
$DIMTIH
 70
0
  9
$DIMTOH
 70
0
  9
$DIMSE1
 70
0
  9
$DIMSE2
 70
0
  9
$DIMTAD
 70
1
  9
$DIMZIN
 70
8
  9
$DIMBLK
  1

  9
$DIMASO
 70
1
  9
$DIMSHO
 70
1
  9
$DIMPOST
  1

  9
$DIMAPOST
  1

  9
$DIMALT
 70
0
  9
$DIMALTD
 70
3
  9
$DIMALTF
 40
0.03937007874
  9
$DIMLFAC
 40
1.0
  9
$DIMTOFL
 70
1
  9
$DIMTVP
 40
0.0
  9
$DIMTIX
 70
0
  9
$DIMSOXD
 70
0
  9
$DIMSAH
 70
0
  9
$DIMBLK1
  1

  9
$DIMBLK2
  1

  9
$DIMSTYLE
  2
ISO-25
  9
$DIMCLRD
 70
0
  9
$DIMCLRE
 70
0
  9
$DIMCLRT
 70
0
  9
$DIMTFAC
 40
1.0
  9
$DIMGAP
 40
0.625
  9
$DIMJUST
 70
0
  9
$DIMSD1
 70
0
  9
$DIMSD2
 70
0
  9
$DIMTOLJ
 70
0
  9
$DIMTZIN
 70
8
  9
$DIMALTZ
 70
0
  9
$DIMALTTZ
 70
0
  9
$DIMUPT
 70
0
  9
$DIMDEC
 70
2
  9
$DIMTDEC
 70
2
  9
$DIMALTU
 70
2
  9
$DIMALTTD
 70
3
  9
$DIMTXSTY
  7
Standard
  9
$DIMAUNIT
 70
0
  9
$DIMADEC
 70
0
  9
$DIMALTRND
 40
0.0
  9
$DIMAZIN
 70
0
  9
$DIMDSEP
 70
44
  9
$DIMATFIT
 70
3
  9
$DIMFRAC
 70
0
  9
$DIMLDRBLK
  1

  9
$DIMLUNIT
 70
2
  9
$DIMLWD
 70
-2
  9
$DIMLWE
 70
-2
  9
$DIMTMOVE
 70
0
  9
$DIMFXL
 40
1.0
  9
$DIMFXLON
 70
0
  9
$DIMJOGANG
 40
0.785398163397
  9
$DIMTFILL
 70
0
  9
$DIMTFILLCLR
 70
0
  9
$DIMARCSYM
 70
0
  9
$DIMLTYPE
  6

  9
$DIMLTEX1
  6

  9
$DIMLTEX2
  6

  9
$DIMTXTDIRECTION
 70
0
  9
$LUNITS
 70
2
  9
$LUPREC
 70
4
  9
$SKETCHINC
 40
1.0
  9
$FILLETRAD
 40
10.0
  9
$AUNITS
 70
0
  9
$AUPREC
 70
2
  9
$MENU
  1
.
  9
$ELEVATION
 40
0.0
  9
$PELEVATION
 40
0.0
  9
$THICKNESS
 40
0.0
  9
$LIMCHECK
 70
0
  9
$CHAMFERA
 40
0.0
  9
$CHAMFERB
 40
0.0
  9
$CHAMFERC
 40
0.0
  9
$CHAMFERD
 40
0.0
  9
$SKPOLY
 70
0
  9
$TDCREATE
 40
2459386.8918402777
  9
$TDUCREATE
 40
2458532.153996898
  9
$TDUPDATE
 40
2459386.8918402777
  9
$TDUUPDATE
 40
2458532.1544311
  9
$TDINDWG
 40
0.0
  9
$TDUSRTIMER
 40
0.0
  9
$USRTIMER
 70
1
  9
$ANGBASE
 50
0.0
  9
$ANGDIR
 70
0
  9
$PDMODE
 70
0
  9
$PDSIZE
 40
0.0
  9
$PLINEWID
 40
0.0
  9
$SPLFRAME
 70
0
  9
$SPLINETYPE
 70
6
  9
$SPLINESEGS
 70
8
  9
$HANDSEED
  5
B0
  9
$SURFTAB1
 70
6
  9
$SURFTAB2
 70
6
  9
$SURFTYPE
 70
6
  9
$SURFU
 70
6
  9
$SURFV
 70
6
  9
$UCSBASE
  2

  9
$UCSNAME
  2

  9
$UCSORG
 10
0.0
 20
0.0
 30
0.0
  9
$UCSXDIR
 10
1.0
 20
0.0
 30
0.0
  9
$UCSYDIR
 10
0.0
 20
1.0
 30
0.0
  9
$UCSORTHOREF
  2

  9
$UCSORTHOVIEW
 70
0
  9
$UCSORGTOP
 10
0.0
 20
0.0
 30
0.0
  9
$UCSORGBOTTOM
 10
0.0
 20
0.0
 30
0.0
  9
$UCSORGLEFT
 10
0.0
 20
0.0
 30
0.0
  9
$UCSORGRIGHT
 10
0.0
 20
0.0
 30
0.0
  9
$UCSORGFRONT
 10
0.0
 20
0.0
 30
0.0
  9
$UCSORGBACK
 10
0.0
 20
0.0
 30
0.0
  9
$PUCSBASE
  2

  9
$PUCSNAME
  2

  9
$PUCSORG
 10
0.0
 20
0.0
 30
0.0
  9
$PUCSXDIR
 10
1.0
 20
0.0
 30
0.0
  9
$PUCSYDIR
 10
0.0
 20
1.0
 30
0.0
  9
$PUCSORTHOREF
  2

  9
$PUCSORTHOVIEW
 70
0
  9
$PUCSORGTOP
 10
0.0
 20
0.0
 30
0.0
  9
$PUCSORGBOTTOM
 10
0.0
 20
0.0
 30
0.0
  9
$PUCSORGLEFT
 10
0.0
 20
0.0
 30
0.0
  9
$PUCSORGRIGHT
 10
0.0
 20
0.0
 30
0.0
  9
$PUCSORGFRONT
 10
0.0
 20
0.0
 30
0.0
  9
$PUCSORGBACK
 10
0.0
 20
0.0
 30
0.0
  9
$USERI1
 70
0
  9
$USERI2
 70
0
  9
$USERI3
 70
0
  9
$USERI4
 70
0
  9
$USERI5
 70
0
  9
$USERR1
 40
0.0
  9
$USERR2
 40
0.0
  9
$USERR3
 40
0.0
  9
$USERR4
 40
0.0
  9
$USERR5
 40
0.0
  9
$WORLDVIEW
 70
1
  9
$SHADEDGE
 70
3
  9
$SHADEDIF
 70
70
  9
$TILEMODE
 70
1
  9
$MAXACTVP
 70
64
  9
$PINSBASE
 10
0.0
 20
0.0
 30
0.0
  9
$PLIMCHECK
 70
0
  9
$PEXTMIN
 10
1e+20
 20
1e+20
 30
1e+20
  9
$PEXTMAX
 10
-1e+20
 20
-1e+20
 30
-1e+20
  9
$PLIMMIN
 10
0.0
 20
0.0
  9
$PLIMMAX
 10
420.0
 20
297.0
  9
$UNITMODE
 70
0
  9
$VISRETAIN
 70
1
  9
$PLINEGEN
 70
0
  9
$PSLTSCALE
 70
1
  9
$TREEDEPTH
 70
3020
  9
$CMLSTYLE
  2
Standard
  9
$CMLJUST
 70
0
  9
$CMLSCALE
 40
20.0
  9
$PROXYGRAPHICS
 70
1
  9
$MEASUREMENT
 70
1
  9
$CELWEIGHT
370
-1
  9
$ENDCAPS
280
0
  9
$JOINSTYLE
280
0
  9
$LWDISPLAY
290
0
  9
$INSUNITS
 70
6
  9
$HYPERLINKBASE
  1

  9
$STYLESHEET
  1

  9
$XEDIT
290
1
  9
$CEPSNTYPE
380
0
  9
$PSTYLEMODE
290
1
  9
$FINGERPRINTGUID
  2
6454D670-D22F-11EB-A1AD-244BFE000D71
  9
$VERSIONGUID
  2
6456D2B6-D22F-11EB-B5F0-244BFE000D71
  9
$EXTNAMES
290
1
  9
$PSVPSCALE
 40
0.0
  9
$OLESTARTUP
290
0
  9
$SORTENTS
280
127
  9
$INDEXCTL
280
0
  9
$HIDETEXT
280
1
  9
$XCLIPFRAME
280
2
  9
$HALOGAP
280
0
  9
$OBSCOLOR
 70
257
  9
$OBSLTYPE
280
0
  9
$INTERSECTIONDISPLAY
280
0
  9
$INTERSECTIONCOLOR
 70
257
  9
$DIMASSOC
280
2
  9
$PROJECTNAME
  1

  9
$CAMERADISPLAY
290
0
  9
$LENSLENGTH
 40
50.0
  9
$CAMERAHEIGHT
 40
0.0
  9
$STEPSPERSEC
 40
24.0
  9
$STEPSIZE
 40
100.0
  9
$3DDWFPREC
 40
2.0
  9
$PSOLWIDTH
 40
0.005
  9
$PSOLHEIGHT
 40
0.08
  9
$LOFTANG1
 40
1.570796326795
  9
$LOFTANG2
 40
1.570796326795
  9
$LOFTMAG1
 40
0.0
  9
$LOFTMAG2
 40
0.0
  9
$LOFTPARAM
 70
7
  9
$LOFTNORMALS
280
1
  9
$LATITUDE
 40
37.795
  9
$LONGITUDE
 40
-122.394
  9
$NORTHDIRECTION
 40
0.0
  9
$TIMEZONE
 70
-8000
  9
$LIGHTGLYPHDISPLAY
280
1
  9
$TILEMODELIGHTSYNCH
280
1
  9
$CMATERIAL
347
20
  9
$SOLIDHIST
280
0
  9
$SHOWHIST
280
1
  9
$DWFFRAME
280
2
  9
$DGNFRAME
280
2
  9
$REALWORLDSCALE
290
1
  9
$INTERFERECOLOR
 62
256
  9
$CSHADOW
280
0
  9
$SHADOWPLANELOCATION
 40
0.0
  0
ENDSEC
  0
SECTION
  2
CLASSES
  0
CLASS
  1
ACDBDICTIONARYWDFLT
  2
AcDbDictionaryWithDefault
  3
ObjectDBX Classes
 90
0
 91
0
280
0
281
0
  0
CLASS
  1
SUN
  2
AcDbSun
  3
SCENEOE
 90
1153
 91
0
280
0
281
0
  0
CLASS
  1
VISUALSTYLE
  2
AcDbVisualStyle
  3
ObjectDBX Classes
 90
4095
 91
0
280
0
281
0
  0
CLASS
  1
MATERIAL
  2
AcDbMaterial
  3
ObjectDBX Classes
 90
1153
 91
0
280
0
281
0
  0
CLASS
  1
SCALE
  2
AcDbScale
  3
ObjectDBX Classes
 90
1153
 91
0
280
0
281
0
  0
CLASS
  1
TABLESTYLE
  2
AcDbTableStyle
  3
ObjectDBX Classes
 90
4095
 91
0
280
0
281
0
  0
CLASS
  1
MLEADERSTYLE
  2
AcDbMLeaderStyle
  3
ACDB_MLEADERSTYLE_CLASS
 90
4095
 91
0
280
0
281
0
  0
CLASS
  1
DICTIONARYVAR
  2
AcDbDictionaryVar
  3
ObjectDBX Classes
 90
0
 91
0
280
0
281
0
  0
CLASS
  1
CELLSTYLEMAP
  2
AcDbCellStyleMap
  3
ObjectDBX Classes
 90
1152
 91
0
280
0
281
0
  0
CLASS
  1
MENTALRAYRENDERSETTINGS
  2
AcDbMentalRayRenderSettings
  3
SCENEOE
 90
1024
 91
0
280
0
281
0
  0
CLASS
  1
ACDBDETAILVIEWSTYLE
  2
AcDbDetailViewStyle
  3
ObjectDBX Classes
 90
1025
 91
0
280
0
281
0
  0
CLASS
  1
ACDBSECTIONVIEWSTYLE
  2
AcDbSectionViewStyle
  3
ObjectDBX Classes
 90
1025
 91
0
280
0
281
0
  0
CLASS
  1
RASTERVARIABLES
  2
AcDbRasterVariables
  3
ISM
 90
0
 91
0
280
0
281
0
  0
CLASS
  1
ACDBPLACEHOLDER
  2
AcDbPlaceHolder
  3
ObjectDBX Classes
 90
0
 91
0
280
0
281
0
  0
CLASS
  1
LAYOUT
  2
AcDbLayout
  3
ObjectDBX Classes
 90
0
 91
0
280
0
281
0
  0
ENDSEC
  0
SECTION
  2
TABLES
  0
TABLE
  2
VPORT
  5
8
330
0
100
AcDbSymbolTable
 70
1
  0
VPORT
  5
23
330
8
100
AcDbSymbolTableRecord
100
AcDbViewportTableRecord
  2
*Active
 70
0
 10
0.0
 20
0.0
 11
1.0
 21
1.0
 12
70.0
 22
50.0
 13
0.0
 23
0.0
 14
0.5
 24
0.5
 15
0.5
 25
0.5
 16
0.0
 26
0.0
 36
1.0
 17
0.0
 27
0.0
 37
0.0
 40
1.0
 41
1.34
 42
50.0
 43
0.0
 44
0.0
 50
0.0
 51
0.0
 71
0
 72
1000
 73
1
 74
3
 75
0
 76
0
 77
0
 78
0
281
0
 65
0
146
0.0
  0
ENDTAB
  0
TABLE
  2
LTYPE
  5
2
330
0
100
AcDbSymbolTable
 70
3
  0
LTYPE
  5
24
330
2
100
AcDbSymbolTableRecord
100
AcDbLinetypeTableRecord
  2
ByBlock
 70
0
  3

 72
65
 73
0
 40
0.0
  0
LTYPE
  5
25
330
2
100
AcDbSymbolTableRecord
100
AcDbLinetypeTableRecord
  2
ByLayer
 70
0
  3

 72
65
 73
0
 40
0.0
  0
LTYPE
  5
26
330
2
100
AcDbSymbolTableRecord
100
AcDbLinetypeTableRecord
  2
Continuous
 70
0
  3

 72
65
 73
0
 40
0.0
  0
ENDTAB
  0
TABLE
  2
LAYER
  5
1
330
0
100
AcDbSymbolTable
 70
2
  0
LAYER
  5
27
330
1
100
AcDbSymbolTableRecord
100
AcDbLayerTableRecord
  2
0
 70
0
 62
7
  6
Continuous
370
-3
390
13
347
21
  0
LAYER
  5
28
330
1
100
AcDbSymbolTableRecord
100
AcDbLayerTableRecord
  2
Defpoints
 70
0
 62
7
  6
Continuous
290
0
370
-3
390
13
347
21
  0
ENDTAB
  0
TABLE
  2
STYLE
  5
5
330
0
100
AcDbSymbolTable
 70
1
  0
STYLE
  5
29
330
5
100
AcDbSymbolTableRecord
100
AcDbTextStyleTableRecord
  2
Standard
 70
0
 40
0.0
 41
1.0
 50
0.0
 71
0
 42
2.5
  3
txt
  4

  0
ENDTAB
  0
TABLE
  2
VIEW
  5
7
330
0
100
AcDbSymbolTable
 70
0
  0
ENDTAB
  0
TABLE
  2
UCS
  5
6
330
0
100
AcDbSymbolTable
 70
0
  0
ENDTAB
  0
TABLE
  2
APPID
  5
3
330
0
100
AcDbSymbolTable
 70
2
  0
APPID
  5
2A
330
3
100
AcDbSymbolTableRecord
100
AcDbRegAppTableRecord
  2
ACAD
 70
0
  0
APPID
  5
AF
330
3
100
AcDbSymbolTableRecord
100
AcDbRegAppTableRecord
  2
HATCHBACKGROUNDCOLOR
 70
0
  0
ENDTAB
  0
TABLE
  2
DIMSTYLE
  5
4
330
0
100
AcDbSymbolTable
 70
1
100
AcDbDimStyleTable
  0
DIMSTYLE
105
2B
330
4
100
AcDbSymbolTableRecord
100
AcDbDimStyleTableRecord
  2
Standard
 70
0
 40
1.0
 41
2.5
 42
0.625
 43
3.75
 44
1.25
 45
0.0
 46
0.0
 47
0.0
 48
0.0
 49
2.5
140
2.5
141
2.5
142
0.0
143
0.03937007874
144
1.0
145
0.0
146
1.0
147
0.625
148
0.0
 69
0
 70
0
 71
0
 72
0
 73
0
 74
0
 75
0
 76
0
 77
1
 78
8
 79
0
170
0
171
3
172
1
173
0
174
0
175
0
176
0
177
0
178
0
179
0
271
0
272
2
273
2
274
3
275
0
276
0
277
2
278
44
279
0
280
0
281
0
282
0
283
0
284
8
285
0
286
0
288
0
289
3
290
0
371
-2
372
-2
  0
ENDTAB
  0
TABLE
  2
BLOCK_RECORD
  5
9
330
0
100
AcDbSymbolTable
 70
2
  0
BLOCK_RECORD
  5
17
330
9
100
AcDbSymbolTableRecord
100
AcDbBlockTableRecord
  2
*Model_Space
340
1A
 70
0
280
1
281
0
  0
BLOCK_RECORD
  5
1B
330
9
100
AcDbSymbolTableRecord
100
AcDbBlockTableRecord
  2
*Paper_Space
340
1E
 70
0
280
1
281
0
  0
ENDTAB
  0
ENDSEC
  0
SECTION
  2
BLOCKS
  0
BLOCK
  5
18
330
17
100
AcDbEntity
  8
0
100
AcDbBlockBegin
  2
*Model_Space
 70
0
 10
0.0
 20
0.0
 30
0.0
  3
*Model_Space
  1

  0
ENDBLK
  5
19
330
17
100
AcDbEntity
  8
0
100
AcDbBlockEnd
  0
BLOCK
  5
1C
330
1B
100
AcDbEntity
  8
0
100
AcDbBlockBegin
  2
*Paper_Space
 70
0
 10
0.0
 20
0.0
 30
0.0
  3
*Paper_Space
  1

  0
ENDBLK
  5
1D
330
1B
100
AcDbEntity
  8
0
100
AcDbBlockEnd
  0
ENDSEC
  0
SECTION
  2
ENTITIES
  0
LINE
  5
2D
330
17
100
AcDbEntity
  8
0
100
AcDbLine
 10
59.19053785716752
 20
-3.5
 30
0.0
 11
59.53554166809054
 21
4.038055030587116
 31
0.0
  0
LINE
  5
2E
330
17
100
AcDbEntity
  8
0
100
AcDbLine
 10
59.19053785716751
 20
-3.5
 30
2.220446049250313e-16
 11
59.19053785716751
 21
-20.5
 31
2.220446049250313e-16
  0
LINE
  5
2F
330
17
100
AcDbEntity
  8
0
100
AcDbLine
 10
59.535541668090524
 20
-28.038055030587113
 30
0.0
 11
59.19053785716752
 21
-20.49999999999998
 31
0.0
  0
LINE
  5
30
330
17
100
AcDbEntity
  8
0
100
AcDbLine
 10
59.53554166809052
 20
-28.038055030587117
 30
0.0
 11
61.13602973978012
 21
-45.80742863813468
 31
0.0
  0
LINE
  5
31
330
17
100
AcDbEntity
  8
0
100
AcDbLine
 10
61.06429321189059
 20
-45.90350635416971
 30
-4.440892098500626e-16
 11
61.13602973978012
 21
-45.807428638134695
 31
-4.440892098500626e-16
  0
LINE
  5
32
330
17
100
AcDbEntity
  8
0
100
AcDbLine
 10
61.06429321189059
 20
-45.90350635416971
 30
1.1102230246251565e-16
 11
51.6108212861697
 21
-56.90027368670187
 31
1.1102230246251565e-16
  0
LINE
  5
33
330
17
100
AcDbEntity
  8
0
100
AcDbLine
 10
51.610821286169696
 20
-56.90027368670187
 30
0.0
 11
47.64344563084474
 21
-56.992925043778136
 31
0.0
  0
LINE
  5
34
330
17
100
AcDbEntity
  8
0
100
AcDbLine
 10
22.157996874047804
 20
-56.99292504377813
 30
0.0
 11
47.64344563084474
 21
-56.99292504377813
 31
0.0
  0
LINE
  5
35
330
17
100
AcDbEntity
  8
0
100
AcDbLine
 10
22.157996874047804
 20
-56.99292504377813
 30
0.0
 11
15.137325652347338
 21
-67.71965660014702
 31
0.0
  0
LINE
  5
36
330
17
100
AcDbEntity
  8
0
100
AcDbLine
 10
-6.0647462346977115
 20
-67.719656600147
 30
0.0
 11
15.137325652347354
 21
-67.719656600147
 31
0.0
  0
LINE
  5
37
330
17
100
AcDbEntity
  8
0
100
AcDbLine
 10
-13.858693355737138
 20
-69.06147197146318
 30
0.0
 11
-6.064746234697694
 21
-67.719656600147
 31
0.0
  0
ARC
  5
38
330
17
100
AcDbEntity
  8
0
100
AcDbCircle
 10
-17.6690873996765
 20
-67.17227459671406
 30
0.0
 40
4.253018867924529
100
AcDbArc
 50
249.56160730774795
 51
333.627737508753
  0
LINE
  5
39
330
17
100
AcDbEntity
  8
0
100
AcDbLine
 10
-19.154241681464846
 20
-71.15755830683304
 30
0.0
 11
-28.106077171443573
 21
-77.19242445465935
 31
0.0
  0
LINE
  5
3A
330
17
100
AcDbEntity
  8
0
100
AcDbLine
 10
-37.536562202950094
 20
-87.66603915155986
 30
0.0
 11
-28.106077171443573
 21
-77.19242445465933
 31
0.0
  0
LINE
  5
3B
330
17
100
AcDbEntity
  8
0
100
AcDbLine
 10
-37.536562202950115
 20
-87.66603915155986
 30
0.0
 11
-36.32083890300895
 21
-92.6225875787556
 31
0.0
  0
LINE
  5
3C
330
17
100
AcDbEntity
  8
0
100
AcDbLine
 10
-39.33983908503393
 20
-96.77788484719386
 30
0.0
 11
-36.320838903008934
 21
-92.6225875787556
 31
0.0
  0
LINE
  5
3D
330
17
100
AcDbEntity
  8
0
100
AcDbLine
 10
-44.38147108081526
 20
-101.84132685955439
 30
0.0
 11
-39.33983908503388
 21
-96.77788484719389
 31
0.0
  0
LINE
  5
3E
330
17
100
AcDbEntity
  8
0
100
AcDbLine
 10
-44.38147108081526
 20
-101.84132685955437
 30
-6.661338147750939e-16
 11
-50.42887717210695
 21
-105.33989903331478
 31
-6.661338147750939e-16
  0
LINE
  5
3F
330
17
100
AcDbEntity
  8
0
100
AcDbLine
 10
-50.428877172106944
 20
-105.33989903331482
 30
-2.220446049250313e-16
 11
-54.706795329246404
 21
-105.25018875419897
 31
-2.220446049250313e-16
  0
LINE
  5
40
330
17
100
AcDbEntity
  8
0
100
AcDbLine
 10
-54.706795329246404
 20
-105.25018875419897
 30
4.440892098500626e-16
 11
-62.6711489148034
 21
-104.91442459487077
 31
4.440892098500626e-16
  0
LINE
  5
41
330
17
100
AcDbEntity
  8
0
100
AcDbLine
 10
-74.32301856549631
 20
-94.6120785180374
 30
-2.220446049250313e-16
 11
-62.67114891480341
 21
-104.91442459487075
 31
-2.220446049250313e-16
  0
LINE
  5
42
330
17
100
AcDbEntity
  8
0
100
AcDbLine
 10
-75.5161988659657
 20
-92.75922714263137
 30
0.0
 11
-74.32301856549634
 21
-94.61207851803742
 31
0.0
  0
LINE
  5
43
330
17
100
AcDbEntity
  8
0
100
AcDbLine
 10
-76.02750219347291
 20
-92.97286853537
 30
-4.440892098500626e-16
 11
-75.51619886596566
 21
-92.75922714263137
 31
-4.440892098500626e-16
  0
LINE
  5
44
330
17
100
AcDbEntity
  8
0
100
AcDbLine
 10
-76.02750219347291
 20
-92.97286853537
 30
0.0
 11
-76.484097287804
 21
-93.10694048943517
 31
0.0
  0
LINE
  5
45
330
17
100
AcDbEntity
  8
0
100
AcDbLine
 10
-76.484097287804
 20
-93.10694048943515
 30
4.440892098500626e-16
 11
-79.50319166006425
 21
-92.68292972643017
 31
4.440892098500626e-16
  0
LINE
  5
46
330
17
100
AcDbEntity
  8
0
100
AcDbLine
 10
-80.7996967076001
 20
-92.0351661854626
 30
8.881784197001252e-16
 11
-79.50319166006423
 21
-92.68292972643017
 31
8.881784197001252e-16
  0
LINE
  5
47
330
17
100
AcDbEntity
  8
0
100
AcDbLine
 10
-80.79969670760012
 20
-92.03516618546261
 30
8.881784197001252e-16
 11
-94.27002524932024
 21
-80.97273420429309
 31
8.881784197001252e-16
  0
LINE
  5
48
330
17
100
AcDbEntity
  8
0
100
AcDbLine
 10
-94.81738239884905
 20
-77.43282606288535
 30
0.0
 11
-94.27002524932024
 21
-80.9727342042931
 31
0.0
  0
LINE
  5
49
330
17
100
AcDbEntity
  8
0
100
AcDbLine
 10
-95.51079997456195
 20
-71.71400731763084
 30
5.551115123125783e-17
 11
-94.81738239884908
 21
-77.43282606288537
 31
5.551115123125783e-17
  0
LINE
  5
4A
330
17
100
AcDbEntity
  8
0
100
AcDbLine
 10
-95.51079997456193
 20
-71.71400731763084
 30
-5.551115123125783e-17
 11
-88.65926273526615
 21
-58.09434457546033
 31
-5.551115123125783e-17
  0
LINE
  5
4B
330
17
100
AcDbEntity
  8
0
100
AcDbLine
 10
-88.65926273526615
 20
-58.094344575460326
 30
2.220446049250313e-16
 11
-84.74546085242358
 21
-53.47882677648837
 31
2.220446049250313e-16
  0
LINE
  5
4C
330
17
100
AcDbEntity
  8
0
100
AcDbLine
 10
-84.74546085242359
 20
-53.47882677648838
 30
-2.220446049250313e-16
 11
-84.89609850480254
 21
-52.28316600540842
 31
-2.220446049250313e-16
  0
LINE
  5
4D
330
17
100
AcDbEntity
  8
0
100
AcDbLine
 10
-88.28399790360338
 20
-43.135305896503134
 30
0.0
 11
-84.89609850480252
 21
-52.28316600540842
 31
0.0
  0
LINE
  5
4E
330
17
100
AcDbEntity
  8
0
100
AcDbLine
 10
-88.28399790360349
 20
-43.13530589650303
 30
-1.1102230246251565e-16
 11
-79.17444255767975
 21
-35.49148136554961
 31
-1.1102230246251565e-16
  0
LINE
  5
4F
330
17
100
AcDbEntity
  8
0
100
AcDbLine
 10
-83.56660539171672
 20
-31.0684181912051
 30
0.0
 11
-79.17444255767975
 21
-35.49148136554961
 31
0.0
  0
LINE
  5
50
330
17
100
AcDbEntity
  8
0
100
AcDbLine
 10
-83.56660539171672
 20
-31.068418191205105
 30
0.0
 11
-85.81833108410865
 21
-14.261308813775303
 31
0.0
  0
LINE
  5
51
330
17
100
AcDbEntity
  8
0
100
AcDbLine
 10
-86.17782855682344
 20
-8.799999999999999
 30
0.0
 11
-85.81833108410865
 21
-14.261308813775319
 31
0.0
  0
LINE
  5
52
330
17
100
AcDbEntity
  8
0
100
AcDbLine
 10
-86.17782855682344
 20
8.8
 30
0.0
 11
-86.17782855682344
 21
-8.800000000000008
 31
0.0
  0
LINE
  5
53
330
17
100
AcDbEntity
  8
0
100
AcDbLine
 10
-86.17782855682347
 20
8.799999999999999
 30
-1.7763568394002505e-15
 11
-85.81833108410868
 21
14.261308813775317
 31
-1.7763568394002505e-15
  0
LINE
  5
54
330
17
100
AcDbEntity
  8
0
100
AcDbLine
 10
-83.56660539171672
 20
31.068418191205108
 30
0.0
 11
-85.81833108410865
 21
14.261308813775313
 31
0.0
  0
LINE
  5
55
330
17
100
AcDbEntity
  8
0
100
AcDbLine
 10
-83.56660539171672
 20
31.068418191205105
 30
0.0
 11
-82.51261213224019
 21
36.15754783456118
 31
0.0
  0
LINE
  5
56
330
17
100
AcDbEntity
  8
0
100
AcDbLine
 10
-81.53564202038244
 20
39.54187157698884
 30
0.0
 11
-82.51261213224018
 21
36.157547834561164
 31
0.0
  0
ARC
  5
57
330
17
100
AcDbEntity
  8
0
100
AcDbCircle
 10
-80.23761213224019
 20
43.59196884748579
 30
0.0
 40
4.253018867924529
100
AcDbArc
 50
75.56608994929894
 51
252.22968254673248
  0
LINE
  5
58
330
17
100
AcDbEntity
  8
0
100
AcDbLine
 10
-78.16261213224018
 20
51.22638986041041
 30
0.0
 11
-79.17749149971755
 21
47.71074460436209
 31
0.0
  0
LINE
  5
59
330
17
100
AcDbEntity
  8
0
100
AcDbLine
 10
-78.16261213224021
 20
51.22638986041039
 30
0.0
 11
-68.6626121322402
 21
61.72638986041041
 31
0.0
  0
LINE
  5
5A
330
17
100
AcDbEntity
  8
0
100
AcDbLine
 10
-68.66261213224023
 20
61.7263898604104
 30
0.0
 11
-62.43280266062351
 21
67.719656600147
 31
0.0
  0
LINE
  5
5B
330
17
100
AcDbEntity
  8
0
100
AcDbLine
 10
-62.43280266062351
 20
67.719656600147
 30
0.0
 11
-59.89838164769888
 21
67.719656600147
 31
0.0
  0
LINE
  5
5C
330
17
100
AcDbEntity
  8
0
100
AcDbLine
 10
-59.89838164769888
 20
67.719656600147
 30
0.0
 11
-59.89838164769888
 21
63.64933720236015
 31
0.0
  0
LINE
  5
5D
330
17
100
AcDbEntity
  8
0
100
AcDbLine
 10
-63.43459757986663
 20
63.64933720236015
 30
0.0
 11
-59.89838164769888
 21
63.64933720236015
 31
0.0
  0
LINE
  5
5E
330
17
100
AcDbEntity
  8
0
100
AcDbLine
 10
-63.43459757986661
 20
63.649337202360144
 30
0.0
 11
-68.46261213224022
 21
57.026389860410404
 31
0.0
  0
LINE
  5
5F
330
17
100
AcDbEntity
  8
0
100
AcDbLine
 10
-68.46261213224022
 20
57.02638986041041
 30
-1.7763568394002505e-15
 11
-73.46261213224022
 21
51.02638986041041
 31
-1.7763568394002505e-15
  0
LINE
  5
60
330
17
100
AcDbEntity
  8
0
100
AcDbLine
 10
-77.8126121322402
 20
35.95754783456117
 30
0.0
 11
-73.46261213224022
 21
51.026389860410404
 31
0.0
  0
LINE
  5
61
330
17
100
AcDbEntity
  8
0
100
AcDbLine
 10
-77.8126121322402
 20
35.957547834561176
 30
0.0
 11
-78.86660539171673
 21
30.8684181912051
 31
0.0
  0
LINE
  5
62
330
17
100
AcDbEntity
  8
0
100
AcDbLine
 10
-78.86660539171672
 20
30.8684181912051
 30
0.0
 11
-81.11833108410865
 21
14.061308813775312
 31
0.0
  0
LINE
  5
63
330
17
100
AcDbEntity
  8
0
100
AcDbLine
 10
-81.11833108410869
 20
14.06130881377532
 30
-4.440892098500626e-16
 11
-81.47782855682348
 21
8.6
 31
-4.440892098500626e-16
  0
LINE
  5
64
330
17
100
AcDbEntity
  8
0
100
AcDbLine
 10
-81.47782855682345
 20
-8.6
 30
0.0
 11
-81.47782855682345
 21
8.600000000000009
 31
0.0
  0
LINE
  5
65
330
17
100
AcDbEntity
  8
0
100
AcDbLine
 10
-81.11833108410869
 20
-14.06130881377532
 30
-8.881784197001252e-16
 11
-81.47782855682348
 21
-8.599999999999996
 31
-8.881784197001252e-16
  0
LINE
  5
66
330
17
100
AcDbEntity
  8
0
100
AcDbLine
 10
-78.86660539171675
 20
-30.868418191205105
 30
0.0
 11
-81.11833108410868
 21
-14.061308813775318
 31
0.0
  0
LINE
  5
67
330
17
100
AcDbEntity
  8
0
100
AcDbLine
 10
-74.97123043336111
 20
-38.066371440861154
 30
0.0
 11
-78.86660539171673
 21
-30.86841819120509
 31
0.0
  0
LINE
  5
68
330
17
100
AcDbEntity
  8
0
100
AcDbLine
 10
-74.97123043336111
 20
-38.066371440861154
 30
0.0
 11
-77.58986410896647
 21
-40.26366599225001
 31
0.0
  0
ARC
  5
69
330
17
100
AcDbEntity
  8
0
100
AcDbCircle
 10
-80.23761213224019
 20
-43.59196884748579
 30
0.0
 40
4.253018867924529
100
AcDbArc
 50
208.50312488632437
 51
411.4968751136759
  0
LINE
  5
6A
330
17
100
AcDbEntity
  8
0
100
AcDbLine
 10
-83.97512720761176
 20
-45.621537903293174
 30
0.0
 11
-84.9419805551655
 21
-46.43282419062803
 31
0.0
  0
LINE
  5
6B
330
17
100
AcDbEntity
  8
0
100
AcDbLine
 10
-84.9419805551655
 20
-46.43282419062804
 30
0.0
 11
-80.90123027269213
 21
-56.05526201055157
 31
0.0
  0
LINE
  5
6C
330
17
100
AcDbEntity
  8
0
100
AcDbLine
 10
-80.85805069169989
 20
-56.20616742147077
 30
-8.881784197001252e-16
 11
-80.90123027269215
 21
-56.05526201055157
 31
-8.881784197001252e-16
  0
LINE
  5
6D
330
17
100
AcDbEntity
  8
0
100
AcDbLine
 10
-90.73798183748028
 20
-75.13310448813611
 30
-1.1102230246251565e-16
 11
-80.85805069169987
 21
-56.20616742147077
 31
-1.1102230246251565e-16
  0
LINE
  5
6E
330
17
100
AcDbEntity
  8
0
100
AcDbLine
 10
-90.7379818374803
 20
-75.13310448813613
 30
4.440892098500626e-16
 11
-90.42874086360821
 21
-76.75248163540391
 31
4.440892098500626e-16
  0
LINE
  5
6F
330
17
100
AcDbEntity
  8
0
100
AcDbLine
 10
-90.42874086360818
 20
-76.75248163540392
 30
0.0
 11
-77.2535836858487
 21
-87.54351527970205
 31
0.0
  0
LINE
  5
70
330
17
100
AcDbEntity
  8
0
100
AcDbLine
 10
-72.58604624984538
 20
-88.98412558657878
 30
0.0
 11
-77.2535836858487
 21
-87.54351527970206
 31
0.0
  0
LINE
  5
71
330
17
100
AcDbEntity
  8
0
100
AcDbLine
 10
-71.64364355414591
 20
-88.5785725360048
 30
0.0
 11
-72.58604624984537
 21
-88.98412558657877
 31
0.0
  0
LINE
  5
72
330
17
100
AcDbEntity
  8
0
100
AcDbLine
 10
-71.40354168165611
 20
-89.06579869832632
 30
2.7755575615628914e-17
 11
-71.64364355414592
 21
-88.5785725360048
 31
2.7755575615628914e-17
  0
LINE
  5
73
330
17
100
AcDbEntity
  8
0
100
AcDbLine
 10
-71.40354168165608
 20
-89.06579869832629
 30
1.1102230246251565e-16
 11
-71.57582138648192
 21
-89.23882368230412
 31
1.1102230246251565e-16
  0
LINE
  5
74
330
17
100
AcDbEntity
  8
0
100
AcDbLine
 10
-71.5758213864819
 20
-89.23882368230412
 30
1.1102230246251565e-16
 11
-71.17463837154784
 21
-89.53030020416713
 31
1.1102230246251565e-16
  0
LINE
  5
75
330
17
100
AcDbEntity
  8
0
100
AcDbLine
 10
-70.83522723765353
 20
-90.21904945256608
 30
2.7755575615628914e-17
 11
-71.1746383715479
 21
-89.53030020416712
 31
2.7755575615628914e-17
  0
LINE
  5
76
330
17
100
AcDbEntity
  8
0
100
AcDbLine
 10
-58.80696628279608
 20
-100.74217888813092
 30
4.440892098500626e-16
 11
-70.8352272376535
 21
-90.21904945256611
 31
4.440892098500626e-16
  0
LINE
  5
77
330
17
100
AcDbEntity
  8
0
100
AcDbLine
 10
-56.08431790847245
 20
-100.9362124069672
 30
0.0
 11
-58.80696628279607
 21
-100.74217888813095
 31
0.0
  0
LINE
  5
78
330
17
100
AcDbEntity
  8
0
100
AcDbLine
 10
-41.59679668643816
 20
-92.1979589213716
 30
0.0
 11
-56.08431790847244
 21
-100.93621240696717
 31
0.0
  0
LINE
  5
79
330
17
100
AcDbEntity
  8
0
100
AcDbLine
 10
-41.59679668643821
 20
-92.19795892137157
 30
0.0
 11
-39.65978464275616
 21
-89.53189056471274
 31
0.0
  0
LINE
  5
7A
330
17
100
AcDbEntity
  8
0
100
AcDbLine
 10
-39.65978464275615
 20
-89.53189056471275
 30
0.0
 11
-40.93733078004187
 21
-84.45741393382836
 31
0.0
  0
LINE
  5
7B
330
17
100
AcDbEntity
  8
0
100
AcDbLine
 10
-40.93733078004211
 20
-84.45741393382815
 30
0.0
 11
-31.284951983088146
 21
-73.73736124405958
 31
0.0
  0
LINE
  5
7C
330
17
100
AcDbEntity
  8
0
100
AcDbLine
 10
-31.284951983088156
 20
-73.73736124405958
 30
0.0
 11
-21.90151028203372
 21
-67.5903248757493
 31
0.0
  0
ARC
  5
7D
330
17
100
AcDbEntity
  8
0
100
AcDbCircle
 10
-17.6690873996765
 20
-67.17227459671406
 30
0.0
 40
4.253018867924529
100
AcDbArc
 50
37.23767764611885
 51
185.6409945867648
  0
LINE
  5
7E
330
17
100
AcDbEntity
  8
0
100
AcDbLine
 10
-14.283122293043032
 20
-64.59867599017988
 30
0.0
 11
-6.866156155946436
 21
-63.649337202360144
 31
0.0
  0
LINE
  5
7F
330
17
100
AcDbEntity
  8
0
100
AcDbLine
 10
12.16258262194821
 20
-63.649337202360144
 30
0.0
 11
-6.866156155946438
 21
-63.649337202360144
 31
0.0
  0
LINE
  5
80
330
17
100
AcDbEntity
  8
0
100
AcDbLine
 10
15.227684568131695
 20
-56.99292504377813
 30
0.0
 11
12.162582621948202
 21
-63.64933720236015
 31
0.0
  0
LINE
  5
81
330
17
100
AcDbEntity
  8
0
100
AcDbLine
 10
15.227684568131703
 20
-56.99292504377813
 30
0.0
 11
12.605361669829389
 21
-56.99292504377813
 31
0.0
  0
LINE
  5
82
330
17
100
AcDbEntity
  8
0
100
AcDbLine
 10
12.394127428849917
 20
-52.45307366021951
 30
0.0
 11
12.605361669829392
 21
-56.99292504377813
 31
0.0
  0
LINE
  5
83
330
17
100
AcDbEntity
  8
0
100
AcDbLine
 10
12.394127428849913
 20
-52.45307366021951
 30
0.0
 11
33.83875968875167
 21
-52.45307366021951
 31
0.0
  0
LINE
  5
84
330
17
100
AcDbEntity
  8
0
100
AcDbLine
 10
33.83875968875168
 20
-52.45307366021952
 30
-8.881784197001252e-16
 11
34.144356112915446
 21
-52.42320341090225
 31
-8.881784197001252e-16
  0
LINE
  5
85
330
17
100
AcDbEntity
  8
0
100
AcDbLine
 10
51.41005731866103
 20
-51.29740769698444
 30
4.440892098500626e-16
 11
34.144356112915446
 21
-52.42320341090224
 31
4.440892098500626e-16
  0
LINE
  5
86
330
17
100
AcDbEntity
  8
0
100
AcDbLine
 10
51.41005731866103
 20
-51.29740769698444
 30
0.0
 11
55.240454315113254
 21
-45.73805460779071
 31
0.0
  0
LINE
  5
87
330
17
100
AcDbEntity
  8
0
100
AcDbLine
 10
53.74353843359855
 20
-27.966262246686938
 30
2.7755575615628914e-17
 11
55.24045431510985
 21
-45.738054607790986
 31
2.7755575615628914e-17
  0
LINE
  5
88
330
17
100
AcDbEntity
  8
0
100
AcDbLine
 10
53.43251681812038
 20
-20.699999999999996
 30
0.0
 11
53.74353843359853
 21
-27.966262246686945
 31
0.0
  0
LINE
  5
89
330
17
100
AcDbEntity
  8
0
100
AcDbLine
 10
53.43251681812042
 20
-20.700000000000003
 30
0.0
 11
53.43251681812037
 21
-3.299999999999996
 31
0.0
  0
LINE
  5
8A
330
17
100
AcDbEntity
  8
0
100
AcDbLine
 10
53.432516818120384
 20
-3.300000000000002
 30
0.0
 11
53.74353843359852
 21
3.9662622466869433
 31
0.0
  0
LINE
  5
8B
330
17
100
AcDbEntity
  8
0
100
AcDbLine
 10
54.302798730968156
 20
10.605952561552808
 30
-6.938893903907228e-18
 11
53.74353843359852
 21
3.966262246686944
 31
-6.938893903907228e-18
  0
ARC
  5
8C
330
17
100
AcDbEntity
  8
0
100
AcDbCircle
 10
56.12855283183141
 20
14.44714917902802
 30
0.0
 40
4.253018867924529
100
AcDbArc
 50
105.79284313130302
 51
244.57785329376995
  0
LINE
  5
8D
330
17
100
AcDbEntity
  8
0
100
AcDbLine
 10
55.25786031373551
 20
21.94470335617563
 30
-6.938893903907228e-18
 11
54.97105098971464
 21
18.539625077114444
 31
-6.938893903907228e-18
  0
LINE
  5
8E
330
17
100
AcDbEntity
  8
0
100
AcDbLine
 10
56.42915650637776
 20
31.260194639950384
 30
-4.440892098500626e-16
 11
55.257860313735506
 21
21.94470335617563
 31
-4.440892098500626e-16
  0
LINE
  5
8F
330
17
100
AcDbEntity
  8
0
100
AcDbLine
 10
56.43989128102182
 20
31.557547834561177
 30
0.0
 11
56.429156506377765
 21
31.260194639950384
 31
0.0
  0
LINE
  5
90
330
17
100
AcDbEntity
  8
0
100
AcDbLine
 10
57.189430668651674
 20
46.45318477965352
 30
0.0
 11
56.43989128102172
 21
31.55754783456117
 31
0.0
  0
LINE
  5
91
330
17
100
AcDbEntity
  8
0
100
AcDbLine
 10
57.18943066865168
 20
46.453184779653526
 30
0.0
 11
52.46992440643593
 21
51.64933720236016
 31
0.0
  0
LINE
  5
92
330
17
100
AcDbEntity
  8
0
100
AcDbLine
 10
14.774035160030454
 20
51.649337202360144
 30
0.0
 11
52.46992440643593
 21
51.649337202360144
 31
0.0
  0
LINE
  5
93
330
17
100
AcDbEntity
  8
0
100
AcDbLine
 10
14.774035160030461
 20
51.64933720236015
 30
0.0
 11
9.747768056225532
 21
63.64933720236016
 31
0.0
  0
LINE
  5
94
330
17
100
AcDbEntity
  8
0
100
AcDbLine
 10
5.812770935248226
 20
63.64933720236016
 30
0.0
 11
9.747768056225542
 21
63.64933720236016
 31
0.0
  0
ARC
  5
95
330
17
100
AcDbEntity
  8
0
100
AcDbCircle
 10
1.5632804372787055
 20
63.82254228311704
 30
0.0
 40
4.253018867924529
100
AcDbArc
 50
182.33402805929288
 51
357.66597194080646
  0
LINE
  5
96
330
17
100
AcDbEntity
  8
0
100
AcDbLine
 10
-6.86615615594644
 20
63.64933720236016
 30
0.0
 11
-2.6862100605095423
 21
63.64933720236016
 31
0.0
  0
LINE
  5
97
330
17
100
AcDbEntity
  8
0
100
AcDbLine
 10
-11.514106721098905
 20
66.46933720236015
 30
0.0
 11
-6.866156155946438
 21
63.64933720236015
 31
0.0
  0
LINE
  5
98
330
17
100
AcDbEntity
  8
0
100
AcDbLine
 10
-27.488881274459352
 20
66.46933720236015
 30
0.0
 11
-11.514106721098894
 21
66.46933720236015
 31
0.0
  0
LINE
  5
99
330
17
100
AcDbEntity
  8
0
100
AcDbLine
 10
-27.488881274459356
 20
66.46933720236015
 30
0.0
 11
-29.7043648243493
 21
63.64933720236013
 31
0.0
  0
LINE
  5
9A
330
17
100
AcDbEntity
  8
0
100
AcDbLine
 10
-31.148381647698884
 20
63.64933720236015
 30
0.0
 11
-29.704364824349273
 21
63.64933720236015
 31
0.0
  0
LINE
  5
9B
330
17
100
AcDbEntity
  8
0
100
AcDbLine
 10
-31.148381647698884
 20
67.719656600147
 30
0.0
 11
-31.148381647698884
 21
63.64933720236015
 31
0.0
  0
LINE
  5
9C
330
17
100
AcDbEntity
  8
0
100
AcDbLine
 10
-31.148381647698884
 20
67.719656600147
 30
0.0
 11
-28.89247346666597
 21
67.719656600147
 31
0.0
  0
LINE
  5
9D
330
17
100
AcDbEntity
  8
0
100
AcDbLine
 10
-26.8730724618012
 20
70.539656600147
 30
0.0
 11
-28.892473466665965
 21
67.71965660014699
 31
0.0
  0
LINE
  5
9E
330
17
100
AcDbEntity
  8
0
100
AcDbLine
 10
-26.87307246180121
 20
70.53965660014698
 30
0.0
 11
-10.522420860126395
 21
70.53965660014698
 31
0.0
  0
LINE
  5
9F
330
17
100
AcDbEntity
  8
0
100
AcDbLine
 10
-6.064746234697703
 20
67.719656600147
 30
0.0
 11
-10.522420860126397
 21
70.539656600147
 31
0.0
  0
LINE
  5
A0
330
17
100
AcDbEntity
  8
0
100
AcDbLine
 10
-6.064746234697704
 20
67.71965660014702
 30
0.0
 11
-0.13985475688286286
 21
67.71965660014702
 31
0.0
  0
ARC
  5
A1
330
17
100
AcDbEntity
  8
0
100
AcDbCircle
 10
1.5632804372787055
 20
63.82254228311704
 30
0.0
 40
4.253018867924529
100
AcDbArc
 50
66.3934841158925
 51
113.6065158841077
  0
LINE
  5
A2
330
17
100
AcDbEntity
  8
0
100
AcDbLine
 10
3.2664156314402577
 20
67.71965660014702
 30
0.0
 11
10.54917797747427
 21
67.71965660014702
 31
0.0
  0
LINE
  5
A3
330
17
100
AcDbEntity
  8
0
100
AcDbLine
 10
10.549177977474267
 20
67.71965660014702
 30
0.0
 11
15.379069928150189
 21
55.719656600147005
 31
0.0
  0
LINE
  5
A4
330
17
100
AcDbEntity
  8
0
100
AcDbLine
 10
15.379069928150187
 20
55.719656600147005
 30
0.0
 11
52.87397934151127
 21
55.719656600147005
 31
0.0
  0
LINE
  5
A5
330
17
100
AcDbEntity
  8
0
100
AcDbLine
 10
52.87397934151126
 20
55.719656600147005
 30
0.0
 11
61.88026132395765
 21
46.626389860410406
 31
0.0
  0
LINE
  5
A6
330
17
100
AcDbEntity
  8
0
100
AcDbLine
 10
61.147109742831404
 20
32.05642868370908
 30
0.0
 11
61.880261323957654
 21
46.62638986041041
 31
0.0
  0
LINE
  5
A7
330
17
100
AcDbEntity
  8
0
100
AcDbLine
 10
61.14710974283149
 20
32.05642868370907
 30
0.0
 11
61.14710974283149
 21
21.82161395854535
 31
0.0
  0
LINE
  5
A8
330
17
100
AcDbEntity
  8
0
100
AcDbLine
 10
61.1174194133651
 20
21.600808014791117
 30
-8.881784197001252e-16
 11
61.14710974283149
 21
21.82161395854535
 31
-8.881784197001252e-16
  0
LINE
  5
A9
330
17
100
AcDbEntity
  8
0
100
AcDbLine
 10
59.53554166809052
 20
4.038055030587115
 30
0.0
 11
61.11741941336513
 21
21.60080801479111
 31
0.0
  0
CIRCLE
  5
AA
330
17
100
AcDbEntity
  8
0
100
AcDbCircle
 10
-17.6690873996765
 20
-67.17227459671406
 30
0.0
 40
2.652236842105263
  0
CIRCLE
  5
AB
330
17
100
AcDbEntity
  8
0
100
AcDbCircle
 10
-80.23761213224019
 20
-43.59196884748579
 30
0.0
 40
2.652236842105263
  0
CIRCLE
  5
AC
330
17
100
AcDbEntity
  8
0
100
AcDbCircle
 10
-80.23761213224019
 20
43.59196884748579
 30
0.0
 40
2.652236842105263
  0
CIRCLE
  5
AD
330
17
100
AcDbEntity
  8
0
100
AcDbCircle
 10
56.12855283183141
 20
14.44714917902802
 30
0.0
 40
2.652236842105263
  0
CIRCLE
  5
AE
330
17
100
AcDbEntity
  8
0
100
AcDbCircle
 10
1.5632804372787055
 20
63.82254228311704
 30
0.0
 40
2.652236842105263
  0
ENDSEC
  0
SECTION
  2
OBJECTS
  0
DICTIONARY
  5
A
330
0
100
AcDbDictionary
281
1
  3
ACAD_COLOR
350
B
  3
ACAD_GROUP
350
C
  3
ACAD_LAYOUT
350
D
  3
ACAD_MATERIAL
350
E
  3
ACAD_MLEADERSTYLE
350
F
  3
ACAD_MLINESTYLE
350
10
  3
ACAD_PLOTSETTINGS
350
11
  3
ACAD_PLOTSTYLENAME
350
12
  3
ACAD_SCALELIST
350
14
  3
ACAD_TABLESTYLE
350
15
  3
ACAD_VISUALSTYLE
350
16
  0
DICTIONARY
  5
B
330
A
100
AcDbDictionary
281
1
  0
DICTIONARY
  5
C
330
A
100
AcDbDictionary
281
1
  0
DICTIONARY
  5
D
330
A
100
AcDbDictionary
281
1
  3
Model
350
1A
  3
Layout1
350
1E
  0
DICTIONARY
  5
E
330
A
100
AcDbDictionary
281
1
  3
ByBlock
350
1F
  3
ByLayer
350
20
  3
Global
350
21
  0
DICTIONARY
  5
F
330
A
100
AcDbDictionary
281
1
  3
Standard
350
2C
  0
DICTIONARY
  5
10
330
A
100
AcDbDictionary
281
1
  3
Standard
350
22
  0
DICTIONARY
  5
11
330
A
100
AcDbDictionary
281
1
  0
ACDBDICTIONARYWDFLT
  5
12
330
A
100
AcDbDictionary
281
1
  3
Normal
350
13
100
AcDbDictionaryWithDefault
340
13
  0
ACDBPLACEHOLDER
  5
13
330
12
  0
DICTIONARY
  5
14
330
A
100
AcDbDictionary
281
1
  0
DICTIONARY
  5
15
330
A
100
AcDbDictionary
281
1
  0
DICTIONARY
  5
16
330
A
100
AcDbDictionary
281
1
  0
LAYOUT
  5
1A
330
D
100
AcDbPlotSettings
  1

  2
Adobe PDF
  4
A4
  6

 40
3.175
 41
3.175
 42
3.175
 43
3.175
 44
209.91
 45
297.03
 46
0.0
 47
0.0
 48
0.0
 49
0.0
140
0.0
141
0.0
142
1.0
143
1.0
 70
1024
 72
0
 73
1
 74
5
  7

 75
16
 76
0
 77
2
 78
300
147
1.0
148
0.0
149
0.0
100
AcDbLayout
  1
Model
 70
1
 71
0
 10
-3.175
 20
-3.175
 11
293.857
 21
206.735
 12
0.0
 22
0.0
 32
0.0
 14
29.068
 24
20.356
 34
0.0
 15
261.614
 25
183.204
 35
0.0
146
0.0
 13
0.0
 23
0.0
 33
0.0
 16
1.0
 26
0.0
 36
0.0
 17
0.0
 27
1.0
 37
0.0
 76
1
330
17
  0
LAYOUT
  5
1E
330
D
100
AcDbPlotSettings
  1

  2
Adobe PDF
  4
A4
  6

 40
3.175
 41
3.175
 42
3.175
 43
3.175
 44
209.91
 45
297.03
 46
0.0
 47
0.0
 48
0.0
 49
0.0
140
0.0
141
0.0
142
1.0
143
1.0
 70
0
 72
0
 73
1
 74
5
  7

 75
16
 76
0
 77
2
 78
300
147
1.0
148
0.0
149
0.0
100
AcDbLayout
  1
Layout1
 70
1
 71
1
 10
-3.175
 20
-3.175
 11
293.857
 21
206.735
 12
0.0
 22
0.0
 32
0.0
 14
29.068
 24
20.356
 34
0.0
 15
261.614
 25
183.204
 35
0.0
146
0.0
 13
0.0
 23
0.0
 33
0.0
 16
1.0
 26
0.0
 36
0.0
 17
0.0
 27
1.0
 37
0.0
 76
1
330
1B
  0
MATERIAL
  5
1F
102
{ACAD_REACTORS
330
E
102
}
330
E
100
AcDbMaterial
  1
ByBlock
  2

 70
0
 40
1.0
 71
1
 41
1.0
 91
-1023410177
 42
1.0
 72
1
  3

 73
1
 74
1
 75
1
 44
0.5
 73
0
 45
1.0
 46
1.0
 77
1
  4

 78
1
 79
1
170
1
 48
1.0
171
1
  6

172
1
173
1
174
1
140
1.0
141
1.0
175
1
  7

176
1
177
1
178
1
143
1.0
179
1
  8

270
1
271
1
272
1
145
1.0
146
1.0
273
1
  9

274
1
275
1
276
1
 42
1.0
 72
1
  3

 73
1
 74
1
 75
1
 94
63
  0
MATERIAL
  5
20
102
{ACAD_REACTORS
330
E
102
}
330
E
100
AcDbMaterial
  1
ByLayer
  2

 70
0
 40
1.0
 71
1
 41
1.0
 91
-1023410177
 42
1.0
 72
1
  3

 73
1
 74
1
 75
1
 44
0.5
 73
0
 45
1.0
 46
1.0
 77
1
  4

 78
1
 79
1
170
1
 48
1.0
171
1
  6

172
1
173
1
174
1
140
1.0
141
1.0
175
1
  7

176
1
177
1
178
1
143
1.0
179
1
  8

270
1
271
1
272
1
145
1.0
146
1.0
273
1
  9

274
1
275
1
276
1
 42
1.0
 72
1
  3

 73
1
 74
1
 75
1
 94
63
  0
MATERIAL
  5
21
102
{ACAD_REACTORS
330
E
102
}
330
E
100
AcDbMaterial
  1
Global
  2

 70
0
 40
1.0
 71
1
 41
1.0
 91
-1023410177
 42
1.0
 72
1
  3

 73
1
 74
1
 75
1
 44
0.5
 73
0
 45
1.0
 46
1.0
 77
1
  4

 78
1
 79
1
170
1
 48
1.0
171
1
  6

172
1
173
1
174
1
140
1.0
141
1.0
175
1
  7

176
1
177
1
178
1
143
1.0
179
1
  8

270
1
271
1
272
1
145
1.0
146
1.0
273
1
  9

274
1
275
1
276
1
 42
1.0
 72
1
  3

 73
1
 74
1
 75
1
 94
63
  0
MLINESTYLE
  5
22
102
{ACAD_REACTORS
330
10
102
}
330
10
100
AcDbMlineStyle
  2
Standard
 70
0
  3

 62
256
 51
90.0
 52
90.0
 71
2
 49
0.5
 62
256
  6
BYLAYER
 49
-0.5
 62
256
  6
BYLAYER
  0
MLEADERSTYLE
  5
2C
102
{ACAD_REACTORS
330
F
102
}
330
F
100
AcDbMLeaderStyle
179
2
170
2
171
1
172
0
 90
2
 40
0.0
 41
0.0
173
1
 91
-1056964608
 92
-2
290
1
 42
2.0
291
1
 43
8.0
  3
Standard
 44
4.0
300

342
29
174
1
175
1
176
0
178
1
 93
-1056964608
 45
4.0
292
0
297
0
 46
4.0
 94
-1056964608
 47
1.0
 49
0.0
140
1.0
294
1
141
0.0
177
0
142
1.0
295
0
296
0
143
3.75
271
0
272
9
272
9
  0
ENDSEC
  0
EOF
