solid OpenSCAD_Model
  facet normal -1 0 0
    outer loop
      vertex -8.25 -23.5 -7
      vertex -8.25 23.5 0
      vertex -8.25 23.5 -7
    endloop
  endfacet
  facet normal -1 -0 0
    outer loop
      vertex -8.25 23.5 0
      vertex -8.25 -23.5 -7
      vertex -8.25 -23.5 0
    endloop
  endfacet
  facet normal 0 0 1
    outer loop
      vertex -4 -19.5 0
      vertex -6.25 -19.5 0
      vertex -4 -22.5 0
    endloop
  endfacet
  facet normal 0 0 1
    outer loop
      vertex 8.25 23.5 0
      vertex 6.25 19.5 0
      vertex 8.25 -23.5 0
    endloop
  endfacet
  facet normal 0 0 1
    outer loop
      vertex 8.25 23.5 0
      vertex 4 22.5 0
      vertex 6.25 19.5 0
    endloop
  endfacet
  facet normal 0 0 1
    outer loop
      vertex 8.25 23.5 0
      vertex -4 22.5 0
      vertex 4 22.5 0
    endloop
  endfacet
  facet normal 0 0 1
    outer loop
      vertex -4 22.5 0
      vertex -6.25 19.5 0
      vertex -4 19.5 0
    endloop
  endfacet
  facet normal 0 0 1
    outer loop
      vertex -6.25 19.5 0
      vertex -8.25 23.5 0
      vertex -6.25 -19.5 0
    endloop
  endfacet
  facet normal 0 0 1
    outer loop
      vertex -4 22.5 0
      vertex -8.25 23.5 0
      vertex -6.25 19.5 0
    endloop
  endfacet
  facet normal -0 0 1
    outer loop
      vertex -8.25 23.5 0
      vertex -4 22.5 0
      vertex 8.25 23.5 0
    endloop
  endfacet
  facet normal -0 0 1
    outer loop
      vertex 6.25 -19.5 0
      vertex 8.25 -23.5 0
      vertex 6.25 19.5 0
    endloop
  endfacet
  facet normal 0 0 1
    outer loop
      vertex 4 -22.5 0
      vertex 6.25 -19.5 0
      vertex 4 -19.5 0
    endloop
  endfacet
  facet normal 0 0 1
    outer loop
      vertex 6.25 -19.5 0
      vertex 4 -22.5 0
      vertex 8.25 -23.5 0
    endloop
  endfacet
  facet normal -0 0 1
    outer loop
      vertex -4 -22.5 0
      vertex 8.25 -23.5 0
      vertex 4 -22.5 0
    endloop
  endfacet
  facet normal 0 0 1
    outer loop
      vertex -4 -22.5 0
      vertex -8.25 -23.5 0
      vertex 8.25 -23.5 0
    endloop
  endfacet
  facet normal 0 0 1
    outer loop
      vertex -6.25 -19.5 0
      vertex -8.25 -23.5 0
      vertex -4 -22.5 0
    endloop
  endfacet
  facet normal 0 0 1
    outer loop
      vertex -8.25 -23.5 0
      vertex -6.25 -19.5 0
      vertex -8.25 23.5 0
    endloop
  endfacet
  facet normal 0 0 1
    outer loop
      vertex 6.25 19.5 0
      vertex 4 22.5 0
      vertex 4 19.5 0
    endloop
  endfacet
  facet normal 1 -0 0
    outer loop
      vertex 8.25 -23.5 0
      vertex 8.25 23.5 -7
      vertex 8.25 23.5 0
    endloop
  endfacet
  facet normal 1 0 0
    outer loop
      vertex 8.25 23.5 -7
      vertex 8.25 -23.5 0
      vertex 8.25 -23.5 -7
    endloop
  endfacet
  facet normal 0 0 -1
    outer loop
      vertex -4 19.5 -7
      vertex -6.25 19.5 -7
      vertex -4 22 -7
    endloop
  endfacet
  facet normal 0 0 -1
    outer loop
      vertex -6.25 -15.5 -7
      vertex 6.25 15.5 -7
      vertex 6.25 -15.5 -7
    endloop
  endfacet
  facet normal -0 0 -1
    outer loop
      vertex 6.25 15.5 -7
      vertex -6.25 -15.5 -7
      vertex -6.25 15.5 -7
    endloop
  endfacet
  facet normal 0 0 -1
    outer loop
      vertex 6.25 -15.5 -7
      vertex 8.25 -23.5 -7
      vertex 6.25 -19.5 -7
    endloop
  endfacet
  facet normal 0 0 -1
    outer loop
      vertex 8.25 -23.5 -7
      vertex 4 -22 -7
      vertex 6.25 -19.5 -7
    endloop
  endfacet
  facet normal 0 0 -1
    outer loop
      vertex 8.25 -23.5 -7
      vertex -4 -22 -7
      vertex 4 -22 -7
    endloop
  endfacet
  facet normal 0 0 -1
    outer loop
      vertex -4 -22 -7
      vertex -6.25 -19.5 -7
      vertex -4 -19.5 -7
    endloop
  endfacet
  facet normal 0 0 -1
    outer loop
      vertex -8.25 -23.5 -7
      vertex -6.25 -15.5 -7
      vertex -6.25 -19.5 -7
    endloop
  endfacet
  facet normal -0 0 -1
    outer loop
      vertex -6.25 -15.5 -7
      vertex -8.25 -23.5 -7
      vertex -6.25 15.5 -7
    endloop
  endfacet
  facet normal 0 0 -1
    outer loop
      vertex -8.25 23.5 -7
      vertex -6.25 15.5 -7
      vertex -8.25 -23.5 -7
    endloop
  endfacet
  facet normal -0 0 -1
    outer loop
      vertex -4 -22 -7
      vertex -8.25 -23.5 -7
      vertex -6.25 -19.5 -7
    endloop
  endfacet
  facet normal 0 0 -1
    outer loop
      vertex -8.25 -23.5 -7
      vertex -4 -22 -7
      vertex 8.25 -23.5 -7
    endloop
  endfacet
  facet normal 0 0 -1
    outer loop
      vertex 8.25 -23.5 -7
      vertex 6.25 -15.5 -7
      vertex 8.25 23.5 -7
    endloop
  endfacet
  facet normal 0 0 -1
    outer loop
      vertex 6.25 15.5 -7
      vertex 8.25 23.5 -7
      vertex 6.25 -15.5 -7
    endloop
  endfacet
  facet normal 0 0 -1
    outer loop
      vertex 6.25 19.5 -7
      vertex 8.25 23.5 -7
      vertex 6.25 15.5 -7
    endloop
  endfacet
  facet normal 0 0 -1
    outer loop
      vertex 4 22 -7
      vertex 6.25 19.5 -7
      vertex 4 19.5 -7
    endloop
  endfacet
  facet normal 0 0 -1
    outer loop
      vertex 6.25 19.5 -7
      vertex 4 22 -7
      vertex 8.25 23.5 -7
    endloop
  endfacet
  facet normal 0 0 -1
    outer loop
      vertex -4 22 -7
      vertex 8.25 23.5 -7
      vertex 4 22 -7
    endloop
  endfacet
  facet normal 0 0 -1
    outer loop
      vertex -4 22 -7
      vertex -8.25 23.5 -7
      vertex 8.25 23.5 -7
    endloop
  endfacet
  facet normal 0 0 -1
    outer loop
      vertex -6.25 19.5 -7
      vertex -8.25 23.5 -7
      vertex -4 22 -7
    endloop
  endfacet
  facet normal 0 0 -1
    outer loop
      vertex -6.25 15.5 -7
      vertex -8.25 23.5 -7
      vertex -6.25 19.5 -7
    endloop
  endfacet
  facet normal -0 0 -1
    outer loop
      vertex 6.25 -19.5 -7
      vertex 4 -22 -7
      vertex 4 -19.5 -7
    endloop
  endfacet
  facet normal 0 -1 0
    outer loop
      vertex -8.25 -23.5 -7
      vertex 8.25 -23.5 0
      vertex -8.25 -23.5 0
    endloop
  endfacet
  facet normal 0 -1 -0
    outer loop
      vertex 8.25 -23.5 0
      vertex -8.25 -23.5 -7
      vertex 8.25 -23.5 -7
    endloop
  endfacet
  facet normal 0 1 -0
    outer loop
      vertex 8.25 23.5 -7
      vertex -8.25 23.5 0
      vertex 8.25 23.5 0
    endloop
  endfacet
  facet normal 0 1 0
    outer loop
      vertex -8.25 23.5 0
      vertex 8.25 23.5 -7
      vertex -8.25 23.5 -7
    endloop
  endfacet
  facet normal 1 0 0
    outer loop
      vertex -6.25 19.5 0
      vertex -6.25 15.5 -4.2
      vertex -6.25 19.5 -7
    endloop
  endfacet
  facet normal 1 0 0
    outer loop
      vertex -6.25 19.5 0
      vertex -6.25 -15.5 -4.2
      vertex -6.25 15.5 -4.2
    endloop
  endfacet
  facet normal 1 -0 0
    outer loop
      vertex -6.25 -19.5 0
      vertex -6.25 -15.5 -4.2
      vertex -6.25 19.5 0
    endloop
  endfacet
  facet normal 1 0 0
    outer loop
      vertex -6.25 -19.5 -7
      vertex -6.25 -15.5 -4.2
      vertex -6.25 -19.5 0
    endloop
  endfacet
  facet normal 1 0 0
    outer loop
      vertex -6.25 -15.5 -4.2
      vertex -6.25 -19.5 -7
      vertex -6.25 -15.5 -7
    endloop
  endfacet
  facet normal 1 0 0
    outer loop
      vertex -6.25 19.5 -7
      vertex -6.25 15.5 -4.2
      vertex -6.25 15.5 -7
    endloop
  endfacet
  facet normal -1 0 0
    outer loop
      vertex 6.25 -15.5 -7
      vertex 6.25 -19.5 -7
      vertex 6.25 -15.5 -4.2
    endloop
  endfacet
  facet normal -1 0 0
    outer loop
      vertex 6.25 15.5 -4.2
      vertex 6.25 19.5 -7
      vertex 6.25 15.5 -7
    endloop
  endfacet
  facet normal -1 0 0
    outer loop
      vertex 6.25 19.5 -7
      vertex 6.25 15.5 -4.2
      vertex 6.25 19.5 0
    endloop
  endfacet
  facet normal -1 0 0
    outer loop
      vertex 6.25 -15.5 -4.2
      vertex 6.25 19.5 0
      vertex 6.25 15.5 -4.2
    endloop
  endfacet
  facet normal -1 0 0
    outer loop
      vertex 6.25 -15.5 -4.2
      vertex 6.25 -19.5 0
      vertex 6.25 19.5 0
    endloop
  endfacet
  facet normal -1 0 0
    outer loop
      vertex 6.25 -19.5 0
      vertex 6.25 -15.5 -4.2
      vertex 6.25 -19.5 -7
    endloop
  endfacet
  facet normal 0 1 -0
    outer loop
      vertex -4 -19.5 -7
      vertex -6.25 -19.5 0
      vertex -4 -19.5 0
    endloop
  endfacet
  facet normal 0 1 0
    outer loop
      vertex -6.25 -19.5 0
      vertex -4 -19.5 -7
      vertex -6.25 -19.5 -7
    endloop
  endfacet
  facet normal 0 1 -0
    outer loop
      vertex 6.25 -19.5 -7
      vertex 4 -19.5 0
      vertex 6.25 -19.5 0
    endloop
  endfacet
  facet normal 0 1 0
    outer loop
      vertex 4 -19.5 0
      vertex 6.25 -19.5 -7
      vertex 4 -19.5 -7
    endloop
  endfacet
  facet normal 0 -1 0
    outer loop
      vertex -6.25 19.5 -7
      vertex -4 19.5 0
      vertex -6.25 19.5 0
    endloop
  endfacet
  facet normal 0 -1 -0
    outer loop
      vertex -4 19.5 0
      vertex -6.25 19.5 -7
      vertex -4 19.5 -7
    endloop
  endfacet
  facet normal 0 -1 0
    outer loop
      vertex 4 19.5 -7
      vertex 6.25 19.5 0
      vertex 4 19.5 0
    endloop
  endfacet
  facet normal 0 -1 -0
    outer loop
      vertex 6.25 19.5 0
      vertex 4 19.5 -7
      vertex 6.25 19.5 -7
    endloop
  endfacet
  facet normal 1 0 0
    outer loop
      vertex -4 -19.5 0
      vertex -4 -22 -4.55
      vertex -4 -19.5 -7
    endloop
  endfacet
  facet normal 1 -0 0
    outer loop
      vertex -4 -22.5 0
      vertex -4 -22 -4.55
      vertex -4 -19.5 0
    endloop
  endfacet
  facet normal 1 0 0
    outer loop
      vertex -4 -22 -4.55
      vertex -4 -22.5 0
      vertex -4 -22.5 -4.55
    endloop
  endfacet
  facet normal 1 0 0
    outer loop
      vertex -4 -19.5 -7
      vertex -4 -22 -4.55
      vertex -4 -22 -7
    endloop
  endfacet
  facet normal 1 0 0
    outer loop
      vertex -4 22.5 0
      vertex -4 22 -4.55
      vertex -4 22.5 -4.55
    endloop
  endfacet
  facet normal 1 -0 0
    outer loop
      vertex -4 19.5 0
      vertex -4 22 -4.55
      vertex -4 22.5 0
    endloop
  endfacet
  facet normal 1 0 0
    outer loop
      vertex -4 19.5 -7
      vertex -4 22 -4.55
      vertex -4 19.5 0
    endloop
  endfacet
  facet normal 1 0 0
    outer loop
      vertex -4 22 -4.55
      vertex -4 19.5 -7
      vertex -4 22 -7
    endloop
  endfacet
  facet normal -1 0 0
    outer loop
      vertex 4 -22 -4.55
      vertex 4 -19.5 -7
      vertex 4 -22 -7
    endloop
  endfacet
  facet normal -1 0 0
    outer loop
      vertex 4 -19.5 -7
      vertex 4 -22 -4.55
      vertex 4 -19.5 0
    endloop
  endfacet
  facet normal -1 0 0
    outer loop
      vertex 4 -22.5 0
      vertex 4 -22 -4.55
      vertex 4 -22.5 -4.55
    endloop
  endfacet
  facet normal -1 0 0
    outer loop
      vertex 4 -22 -4.55
      vertex 4 -22.5 0
      vertex 4 -19.5 0
    endloop
  endfacet
  facet normal -1 0 0
    outer loop
      vertex 4 22 -7
      vertex 4 19.5 -7
      vertex 4 22 -4.55
    endloop
  endfacet
  facet normal -1 0 0
    outer loop
      vertex 4 22 -4.55
      vertex 4 22.5 0
      vertex 4 22.5 -4.55
    endloop
  endfacet
  facet normal -1 0 0
    outer loop
      vertex 4 19.5 0
      vertex 4 22 -4.55
      vertex 4 19.5 -7
    endloop
  endfacet
  facet normal -1 0 0
    outer loop
      vertex 4 22 -4.55
      vertex 4 19.5 0
      vertex 4 22.5 0
    endloop
  endfacet
  facet normal 0 -1 0
    outer loop
      vertex -4 22 -7
      vertex 4 22 -4.55
      vertex -4 22 -4.55
    endloop
  endfacet
  facet normal 0 -1 -0
    outer loop
      vertex 4 22 -4.55
      vertex -4 22 -7
      vertex 4 22 -7
    endloop
  endfacet
  facet normal 0 1 -0
    outer loop
      vertex 4 -22 -7
      vertex -4 -22 -4.55
      vertex 4 -22 -4.55
    endloop
  endfacet
  facet normal 0 1 0
    outer loop
      vertex -4 -22 -4.55
      vertex 4 -22 -7
      vertex -4 -22 -7
    endloop
  endfacet
  facet normal -0 0 1
    outer loop
      vertex -4 -22 -4.55
      vertex 4 -22.5 -4.55
      vertex 4 -22 -4.55
    endloop
  endfacet
  facet normal 0 0 1
    outer loop
      vertex 4 -22.5 -4.55
      vertex -4 -22 -4.55
      vertex -4 -22.5 -4.55
    endloop
  endfacet
  facet normal -0 0 1
    outer loop
      vertex -4 22.5 -4.55
      vertex 4 22 -4.55
      vertex 4 22.5 -4.55
    endloop
  endfacet
  facet normal 0 0 1
    outer loop
      vertex 4 22 -4.55
      vertex -4 22.5 -4.55
      vertex -4 22 -4.55
    endloop
  endfacet
  facet normal 0 1 -0
    outer loop
      vertex 4 -22.5 -4.55
      vertex -4 -22.5 0
      vertex 4 -22.5 0
    endloop
  endfacet
  facet normal 0 1 0
    outer loop
      vertex -4 -22.5 0
      vertex 4 -22.5 -4.55
      vertex -4 -22.5 -4.55
    endloop
  endfacet
  facet normal 0 -1 0
    outer loop
      vertex -4 22.5 -4.55
      vertex 4 22.5 0
      vertex -4 22.5 0
    endloop
  endfacet
  facet normal 0 -1 -0
    outer loop
      vertex 4 22.5 0
      vertex -4 22.5 -4.55
      vertex 4 22.5 -4.55
    endloop
  endfacet
  facet normal -0 0 1
    outer loop
      vertex -6.25 15.5 -4.2
      vertex 6.25 -15.5 -4.2
      vertex 6.25 15.5 -4.2
    endloop
  endfacet
  facet normal 0 0 1
    outer loop
      vertex 6.25 -15.5 -4.2
      vertex -6.25 15.5 -4.2
      vertex -6.25 -15.5 -4.2
    endloop
  endfacet
  facet normal 0 -1 0
    outer loop
      vertex -6.25 -15.5 -7
      vertex 6.25 -15.5 -4.2
      vertex -6.25 -15.5 -4.2
    endloop
  endfacet
  facet normal 0 -1 -0
    outer loop
      vertex 6.25 -15.5 -4.2
      vertex -6.25 -15.5 -7
      vertex 6.25 -15.5 -7
    endloop
  endfacet
  facet normal 0 1 -0
    outer loop
      vertex 6.25 15.5 -7
      vertex -6.25 15.5 -4.2
      vertex 6.25 15.5 -4.2
    endloop
  endfacet
  facet normal 0 1 0
    outer loop
      vertex -6.25 15.5 -4.2
      vertex 6.25 15.5 -7
      vertex -6.25 15.5 -7
    endloop
  endfacet
endsolid OpenSCAD_Model
